HIERARCHY
ROOT Hips
{
	OFFSET 0.000000 0.000000 0.000000
	CHANNELS 6 Xposition Yposition Zposition Zrotation Yrotation Xrotation 
	JOINT LeftUpLeg_virtual
	{
		OFFSET 0.000000 0.000000 0.000000
		CHANNELS 3 Zrotation Yrotation Xrotation
		JOINT LeftUpLeg
		{
			OFFSET 10.205400 -3.823500 0.155100
			CHANNELS 3 Zrotation Yrotation Xrotation
			JOINT LeftLeg
			{
				OFFSET 0.708757 -12.982077 0.567790
				CHANNELS 3 Zrotation Yrotation Xrotation
				JOINT LeftFoot
				{
					OFFSET -0.708756 -10.717838 -2.184338
					CHANNELS 3 Zrotation Yrotation Xrotation
					JOINT LeftToeBase
					{
						OFFSET 0.108149 -7.191104 7.560241
						CHANNELS 3 Zrotation Yrotation Xrotation
						End Site
						{
							OFFSET 0.000000 0.000000 0.000000
						}
					}
				}
			}
		}
	}
	JOINT RightUpLeg_virtual
	{
		OFFSET 0.000000 0.000000 0.000000
		CHANNELS 3 Zrotation Yrotation Xrotation
		JOINT RightUpLeg
		{
			OFFSET -10.205400 -3.823500 0.005500
			CHANNELS 3 Zrotation Yrotation Xrotation
			JOINT RightLeg
			{
				OFFSET -0.708756 -12.982134 0.610632
				CHANNELS 3 Zrotation Yrotation Xrotation
				JOINT RightFoot
				{
					OFFSET 0.708754 -10.717769 -1.945823
					CHANNELS 3 Zrotation Yrotation Xrotation
					JOINT RightToeBase
					{
						OFFSET -0.108140 -7.191069 7.372968
						CHANNELS 3 Zrotation Yrotation Xrotation
						End Site
						{
							OFFSET 0.000000 0.000000 0.000000
						}
					}
				}
			}
		}
	}
	JOINT Spine_virtual
	{
		OFFSET 0.000000 0.000000 0.000000
		CHANNELS 3 Zrotation Yrotation Xrotation
		JOINT Spine
		{
			OFFSET 0.000000 6.876099 0.125700
			CHANNELS 3 Zrotation Yrotation Xrotation
			JOINT Spine1
			{
				OFFSET 0.000000 8.022060 0.146608
				CHANNELS 3 Zrotation Yrotation Xrotation
				JOINT Spine2
				{
					OFFSET 0.000000 9.168068 0.167552
					CHANNELS 3 Zrotation Yrotation Xrotation
					JOINT Neck_virtual
					{
						OFFSET 0.000000 0.000000 0.000000
						CHANNELS 3 Zrotation Yrotation Xrotation
						JOINT Neck
						{
							OFFSET 0.000000 10.314075 0.188496
							CHANNELS 3 Zrotation Yrotation Xrotation
							JOINT Head
							{
								OFFSET 0.000000 7.643700 -2.377400
								CHANNELS 3 Zrotation Yrotation Xrotation
								End Site
								{
									OFFSET 0.000000 0.000000 0.000000
								}
							}
						}
					}
					JOINT LeftShoulder_virtual
					{
						OFFSET 0.000000 0.000000 0.000000
						CHANNELS 3 Zrotation Yrotation Xrotation
						JOINT LeftShoulder
						{
							OFFSET 4.392200 8.824978 0.174984
							CHANNELS 3 Zrotation Yrotation Xrotation
							JOINT LeftArm
							{
								OFFSET 8.771219 -2.981674 -0.026999
								CHANNELS 3 Zrotation Yrotation Xrotation
								JOINT LeftForeArm
								{
									OFFSET 8.512804 0.000000 -0.000000
									CHANNELS 3 Zrotation Yrotation Xrotation
									JOINT LeftHand
									{
										OFFSET 18.484802 0.000000 -0.000000
										CHANNELS 3 Zrotation Yrotation Xrotation
										End Site
										{
											OFFSET 0.000000 0.000000 0.000000
										}
									}
								}
							}
						}
					}
					JOINT RightShoulder_virtual
					{
						OFFSET 0.000000 0.000000 0.000000
						CHANNELS 3 Zrotation Yrotation Xrotation
						JOINT RightShoulder
						{
							OFFSET -4.392200 8.824993 0.141379
							CHANNELS 3 Zrotation Yrotation Xrotation
							JOINT RightArm
							{
								OFFSET -8.771282 -2.981682 -0.094208
								CHANNELS 3 Zrotation Yrotation Xrotation
								JOINT RightForeArm
								{
									OFFSET -8.494598 0.000000 0.000000
									CHANNELS 3 Zrotation Yrotation Xrotation
									JOINT RightHand
									{
										OFFSET -18.483803 0.000000 0.000001
										CHANNELS 3 Zrotation Yrotation Xrotation
										End Site
										{
											OFFSET 0.000000 0.000000 0.000000
										}
									}
								}
							}
						}
					}
				}
			}
		}
	}
}
MOTION
Frames: 8
Frame Time: 0.033333
-0.168517 20.874609 10.246904 179.817666 6.944724 179.764008 0.795461 -2.397961 -4.849450 2.799413 11.348292 -86.983251 9.968776 3.639108 94.007616 0.294097 -5.808066 3.375579 0.000000 0.000000 0.000000 2.674143 1.839564 -4.840182 2.225251 -7.546130 -84.527566 -2.280276 -0.741885 92.472326 -3.342034 8.788618 1.924719 0.000000 0.000000 0.000000 -0.369938 2.134859 0.092150 -0.468402 -2.949153 2.905404 0.194265 -1.318285 7.733019 0.063664 0.014560 -0.054132 0.037900 -0.230639 11.255389 -1.781337 4.646894 7.620585 0.000000 0.000000 0.000000 1.988226 0.408351 7.786562 -8.568113 -11.635950 1.385097 -23.687579 -29.827030 0.134832 -1.909501 -81.187884 4.721661 0.000000 0.000000 0.000000 -1.879666 1.635294 7.230191 15.024949 16.145319 -3.761415 39.262352 -1.856775 -1.410027 -35.666257 88.167196 -41.947344 0.000000 0.000000 0.000000 
-0.170839 20.894821 10.242366 179.952754 7.059509 179.945937 0.951901 -2.408351 -4.902811 2.826285 11.410967 -87.015469 9.971111 3.591676 94.032266 0.336386 -5.877530 3.347168 0.000000 0.000000 0.000000 2.821030 1.889869 -4.944209 2.288408 -7.568123 -84.565692 -2.233556 -0.760739 92.330531 -3.363239 8.797572 2.023168 0.000000 0.000000 0.000000 -0.330256 2.157339 0.043674 -0.407628 -3.151114 2.762868 0.164999 -1.285972 7.673605 0.014615 0.049493 -0.017886 -0.044048 -0.125034 11.165451 -2.242955 4.747758 7.344017 0.000000 0.000000 0.000000 1.900372 0.337833 7.746833 -8.331555 -11.594614 0.916044 -23.796879 -31.067341 -1.229453 -1.149189 -80.434063 3.202866 0.000000 0.000000 0.000000 -1.982155 1.557536 7.184699 15.880390 16.270011 -3.637977 37.843558 -1.077693 -0.871494 -24.302418 87.264191 -29.901127 0.000000 0.000000 0.000000 
-0.171793 20.907700 10.247247 179.803214 7.193003 179.920064 0.777302 -2.376301 -4.896746 2.888630 11.446750 -86.998442 9.911292 3.559362 94.011024 0.359282 -5.910312 3.431696 0.000000 0.000000 0.000000 2.692407 1.898166 -4.939584 2.327078 -7.518263 -84.510095 -2.199097 -0.803429 92.185847 -3.388294 8.828288 2.154297 0.000000 0.000000 0.000000 -0.466036 2.168790 0.104232 -0.492364 -3.373099 2.719292 0.020223 -1.296825 7.690100 0.099107 0.043102 0.004601 -0.216673 -0.350617 11.047402 -2.611698 4.679628 7.067900 0.000000 0.000000 0.000000 1.784493 0.356446 7.668423 -8.104462 -11.531563 0.346493 -24.149322 -32.164911 -2.322607 -1.039750 -79.540538 2.519930 0.000000 0.000000 0.000000 -2.062355 1.524427 7.122483 16.724131 16.396842 -3.587891 36.606272 -0.251157 -0.328331 -18.830012 86.602694 -23.825740 0.000000 0.000000 0.000000 
-0.168034 20.904934 10.249627 179.944612 7.272867 179.883687 0.888312 -2.353265 -4.894944 2.950996 11.470230 -86.956054 9.856004 3.494511 94.087830 0.394871 -5.957069 3.401664 0.000000 0.000000 0.000000 2.808838 1.911737 -4.782745 2.422945 -7.494355 -84.557920 -2.188899 -0.874928 92.058055 -3.462698 8.819077 2.209732 0.000000 0.000000 0.000000 -0.431434 2.161283 0.197484 -0.478878 -3.632532 2.722116 -0.026426 -1.353225 7.744842 0.010975 0.004567 0.017619 -0.236938 -0.119013 10.937795 -2.985010 4.945810 6.769511 0.000000 0.000000 0.000000 1.732617 0.412369 7.587555 -7.822246 -11.437554 0.013502 -24.551614 -33.091665 -3.363660 -0.753914 -78.320400 1.839227 0.000000 0.000000 0.000000 -2.092620 1.596568 7.063172 17.588198 16.509969 -3.356390 35.629187 0.621698 0.106518 -16.951858 86.147455 -21.443601 0.000000 0.000000 0.000000 
-0.160168 20.889521 10.245603 179.940596 7.425976 179.871174 0.842633 -2.201259 -4.887633 3.024893 11.457117 -87.021979 9.789892 3.473100 94.163235 0.425998 -5.961903 3.462846 0.000000 0.000000 0.000000 2.784811 2.022718 -4.796102 2.500330 -7.475606 -84.603491 -2.169027 -0.900557 92.067535 -3.536781 8.834357 2.132824 0.000000 0.000000 0.000000 -0.493688 2.329778 0.247481 -0.542969 -3.754721 2.740188 -0.079910 -1.275308 7.795048 0.013079 -0.078658 -0.023798 -0.303393 -0.194922 11.016449 -3.309940 5.074289 6.455325 0.000000 0.000000 0.000000 1.677783 0.363005 7.739345 -7.454283 -11.573483 -0.510042 -25.107755 -33.851364 -4.033695 -0.554446 -76.853261 1.400469 0.000000 0.000000 0.000000 -2.140039 1.530527 7.078409 18.366105 16.369269 -3.261100 34.969445 1.391264 0.711519 -17.526993 85.823738 -21.623689 0.000000 0.000000 0.000000 
-0.150379 20.867174 10.242268 179.871229 7.573201 179.798487 0.732335 -2.102764 -4.860325 3.070921 11.501525 -87.041752 9.682069 3.399408 94.319414 0.444701 -5.951928 3.362398 0.000000 0.000000 0.000000 2.716687 2.127583 -4.711221 2.561232 -7.456249 -84.635872 -2.171085 -0.942067 92.130427 -3.618431 8.854153 2.083161 0.000000 0.000000 0.000000 -0.570267 2.378485 0.281136 -0.693665 -3.998505 2.817761 -0.182948 -1.327825 7.900579 0.014954 0.040181 0.021168 -0.355986 -0.247069 10.998423 -3.510720 5.241260 6.115652 0.000000 0.000000 0.000000 1.637979 0.354516 7.675155 -7.076100 -11.669782 -0.876074 -25.765087 -34.381444 -4.480236 -0.966201 -75.379074 1.702056 0.000000 0.000000 0.000000 -2.175465 1.508878 7.109067 19.046327 16.360569 -3.263223 34.565299 2.042926 1.142291 -16.455507 85.643961 -20.264806 0.000000 0.000000 0.000000 
-0.139864 20.844885 10.238558 179.797913 7.665695 179.883823 0.671187 -2.053770 -4.916557 3.146639 11.485835 -87.140585 9.589357 3.340646 94.421853 0.467808 -5.917703 3.350283 0.000000 0.000000 0.000000 2.650013 2.196011 -4.820975 2.623084 -7.463752 -84.678664 -2.181988 -0.956672 92.240694 -3.692367 8.876429 2.051502 0.000000 0.000000 0.000000 -0.632347 2.462743 0.180200 -0.887053 -4.153248 2.875865 -0.157197 -1.326984 8.007775 -0.002534 0.029541 -0.022353 -0.448223 -0.342073 11.182632 -3.635697 5.403356 5.725082 0.000000 0.000000 0.000000 1.560197 0.383978 7.877939 -6.682661 -11.944323 -1.247565 -26.486744 -34.940847 -4.472310 -0.882081 -73.848538 1.613751 0.000000 0.000000 0.000000 -2.251681 1.495790 7.289951 19.622824 16.214589 -3.308423 34.441280 2.538551 1.425995 -16.503959 85.503375 -20.130487 0.000000 0.000000 0.000000 
-0.127702 20.827202 10.233126 179.887717 7.722817 179.851940 0.756410 -1.989804 -4.933891 3.243563 11.429054 -87.118093 9.510922 3.285959 94.503488 0.486927 -5.894347 3.313646 0.000000 0.000000 0.000000 2.681119 2.244211 -4.616155 2.724406 -7.470336 -84.870879 -2.203624 -1.004352 92.264210 -3.780379 8.846885 2.026942 0.000000 0.000000 0.000000 -0.563943 2.486006 0.120221 -0.982275 -4.323389 2.993436 -0.298885 -1.325360 8.152475 0.012878 0.009514 -0.007402 -0.448091 -0.138507 11.285127 -3.728599 5.540213 5.321238 0.000000 0.000000 0.000000 1.528529 0.423678 7.975238 -6.302902 -12.162481 -1.452734 -27.245090 -35.375752 -4.299881 -0.700931 -72.449326 1.496456 0.000000 0.000000 0.000000 -2.302016 1.541799 7.431179 20.112344 16.100622 -3.311262 34.477910 2.886066 1.538923 -16.715816 85.339143 -20.251583 0.000000 0.000000 0.000000 
